<svg xmlns="http://www.w3.org/2000/svg" xmlns:xlink="http://www.w3.org/1999/xlink" width="400" height="400" viewBox="0 0 400 400"><g data-name="icon" fill="#4e87b5" data="id:6404118" transform="translate(34.51288314956586, 21.23149113908093) scale(0.623538492460399)">
  <g><path d="M265.4,57c0,0,167.3,151.8,167.3,292.1c0,92.4-74.9,167.3-167.3,167.3S98.1,441.5,98.1,349.1C98.1,207.5,265.4,57,265.4,57    M265.4,30.1c-6.5,0-12.9,2.3-18,6.9c-1.8,1.6-44.2,40-87.1,96.7c-25.5,33.7-45.8,66.9-60.5,98.7c-8.9,19.3-15.8,38.4-20.6,56.7   c-5.3,20.6-8,40.8-8,60c0,26.2,5.1,51.7,15.3,75.6c4.9,11.5,10.9,22.6,17.9,33c6.9,10.3,14.9,19.9,23.7,28.7   c8.8,8.8,18.5,16.8,28.7,23.7c10.4,7,21.5,13,33,17.9c24,10.1,49.4,15.3,75.6,15.3s51.7-5.1,75.6-15.3c11.5-4.9,22.6-10.9,33-17.9   c10.3-6.9,19.9-14.9,28.7-23.7c8.8-8.8,16.8-18.5,23.7-28.7c7-10.4,13-21.5,17.9-33c10.1-24,15.3-49.4,15.3-75.6   c0-19-2.7-39.1-8.1-59.6c-4.7-18.2-11.7-37.2-20.6-56.5c-14.7-31.8-35-65-60.5-98.8c-42.9-56.9-85.3-95.6-87.1-97.2   C278.4,32.4,271.9,30.1,265.4,30.1L265.4,30.1z" fill="#FFFFFF"/></g><g><path d="M290.4,486.1c-7.5,0-13.5-6-13.5-13.5c0-7.5,6-13.5,13.5-13.5c23.1,0,45-9.1,61.6-25.7c16.7-16.6,25.9-38.6,25.9-61.9   c0-7.5,6-13.5,13.5-13.5s13.5,6,13.5,13.5c0,15.4-3.1,30.5-9.1,44.6c-5.8,13.6-14.1,25.8-24.7,36.4c-10.5,10.5-22.8,18.7-36.4,24.5   C320.6,483.1,305.7,486.1,290.4,486.1z" fill="#FFFFFF"/></g>
  </g></svg>