<svg xmlns="http://www.w3.org/2000/svg" xmlns:xlink="http://www.w3.org/1999/xlink" viewBox="50 55 295 275"><g data-name="icon" fill="#4e87b5" data="id:6404118" transform="translate(129.00602687116373,72.61909469491769) scale(0.2674980132655112)">
  <g><path d="M265.4,57c0,0,167.3,151.8,167.3,292.1c0,92.4-74.9,167.3-167.3,167.3S98.1,441.5,98.1,349.1C98.1,207.5,265.4,57,265.4,57    M265.4,30.1c-6.5,0-12.9,2.3-18,6.9c-1.8,1.6-44.2,40-87.1,96.7c-25.5,33.7-45.8,66.9-60.5,98.7c-8.9,19.3-15.8,38.4-20.6,56.7   c-5.3,20.6-8,40.8-8,60c0,26.2,5.1,51.7,15.3,75.6c4.9,11.5,10.9,22.6,17.9,33c6.9,10.3,14.9,19.9,23.7,28.7   c8.8,8.8,18.5,16.8,28.7,23.7c10.4,7,21.5,13,33,17.9c24,10.1,49.4,15.3,75.6,15.3s51.7-5.1,75.6-15.3c11.5-4.9,22.6-10.9,33-17.9   c10.3-6.9,19.9-14.9,28.7-23.7c8.8-8.8,16.8-18.5,23.7-28.7c7-10.4,13-21.5,17.9-33c10.1-24,15.3-49.4,15.3-75.6   c0-19-2.7-39.1-8.1-59.6c-4.7-18.2-11.7-37.2-20.6-56.5c-14.7-31.8-35-65-60.5-98.8c-42.9-56.9-85.3-95.6-87.1-97.2   C278.4,32.4,271.9,30.1,265.4,30.1L265.4,30.1z"/></g><g><path d="M290.4,486.1c-7.5,0-13.5-6-13.5-13.5c0-7.5,6-13.5,13.5-13.5c23.1,0,45-9.1,61.6-25.7c16.7-16.6,25.9-38.6,25.9-61.9   c0-7.5,6-13.5,13.5-13.5s13.5,6,13.5,13.5c0,15.4-3.1,30.5-9.1,44.6c-5.8,13.6-14.1,25.8-24.7,36.4c-10.5,10.5-22.8,18.7-36.4,24.5   C320.6,483.1,305.7,486.1,290.4,486.1z"/></g>
  </g><g data-name="business_name" fill="#093b66" data="id:201" transform="translate(58.86764989101764,217.6252826702209) scale(1.9102916815771223)"><path d="M4.52,48l0-37.36l-3.32,0l0,37.36l3.32,0z M10.2,48l0.04-31.4l-3.32,0l0,31.4l3.28,0z M10.24,14.4l0-3.76l-3.32,0l0,3.76l3.32,0z M21.48,52.96l0-36.36l-2.92,0q-0.12,0.2-0.32,0.96q-0.48-0.64-0.96-0.92t-1.44-0.28q-1.72,0-2.48,1.12q-0.72,1.08-0.72,3.28l0,22.84q0,2.28,0.72,3.28q0.76,1.12,2.48,1.12q0.72,0,1.36-0.32t0.96-0.8l0,6.08l3.32,0z M17.84,19.8q0.32,0.48,0.32,1.4l0,22.24q0,0.92-0.32,1.4t-0.8,0.48q-0.52,0-0.82-0.54t-0.3-1.26l0-22.4q0-0.72,0.3-1.26t0.82-0.54q0.48,0,0.8,0.48z M27.08,48.08q1,0,1.54-0.36t0.86-0.96q0.2,0.96,0.4,1.24l3.16,0q-0.2-0.64-0.26-1.26t-0.06-1.58l0-28.56l-3.28,0l0,26.84q0,0.92-0.34,1.4t-0.78,0.48q-0.56,0-0.84-0.54t-0.28-1.3l0-26.88l-3.32,0l0,27q0,2.2,0.72,3.28q0.84,1.2,2.48,1.2z M38.72,48l0.04-31.4l-3.32,0l0,31.4l3.28,0z M38.76,14.4l0-3.76l-3.32,0l0,3.76l3.32,0z M44.36,48.08q0.88,0,1.5-0.38t0.9-0.94q0.24,1.04,0.4,1.24l3.16,0q-0.24-0.72-0.28-1.24t-0.04-1.6l0-34.52l-3.28,0l0,6.84q-0.32-0.48-0.98-0.8t-1.38-0.32q-1.72,0-2.48,1.12q-0.72,1.08-0.72,3.28l0,22.84q0,2.2,0.72,3.28q0.84,1.2,2.48,1.2z M46.4,19.8q0.32,0.48,0.32,1.4l0,22.24q0,0.92-0.34,1.4t-0.78,0.48q-0.56,0-0.84-0.54t-0.28-1.3l0-22.36q0-0.76,0.28-1.28t0.84-0.52q0.48,0,0.8,0.48z  M64,48l0-25.08q0-1.48,0.64-2.34t1.72-0.86l0.24,0l0-3.36l-0.24,0q-1.6,0-2.36,1.24l0-1l-3.28,0l0,31.4l3.28,0z M73.68,48.24q4.16,0,4.16-4.4l0-6.96l-3.28,0l0,6.52q0,0.92-0.32,1.4t-0.8,0.48q-0.56,0-0.84-0.54t-0.28-1.26l0-5.24q0-1.44,0.44-2.34t1.92-2.5q1.08-1.12,1.68-1.96t0.92-1.68q0.32-0.8,0.44-1.74t0.12-2.42l0-4.84q0-4.4-4.16-4.4l-0.48,0q-4.2,0-4.2,4.4l0,23.08q0,4.4,4.2,4.4l0.48,0z M74.24,19.8q0.32,0.48,0.32,1.4l0,4.96q0,1.52-0.38,2.44t-1.78,2.4l-0.08,0.08l0-9.96q0-0.72,0.28-1.26t0.84-0.54q0.48,0,0.8,0.48z M83.56,48l0-37.36l-3.32,0l0,37.36l3.32,0z M90.64,48.24q4.16,0,4.16-4.4l0-6.96l-3.28,0l0,6.52q0,0.92-0.32,1.4t-0.8,0.48q-0.56,0-0.84-0.54t-0.28-1.26l0-5.24q0-1.44,0.44-2.34t1.92-2.5q1.08-1.12,1.68-1.96t0.92-1.68q0.32-0.8,0.44-1.74t0.12-2.42l0-4.84q0-4.4-4.16-4.4l-0.48,0q-4.2,0-4.2,4.4l0,23.08q0,4.4,4.2,4.4l0.48,0z M91.2,19.8q0.32,0.48,0.32,1.4l0,4.96q0,1.52-0.38,2.44t-1.78,2.4l-0.08,0.08l0-9.96q0-0.72,0.28-1.26t0.84-0.54q0.48,0,0.8,0.48z M102.3,47.72q0.46-0.36,0.62-0.76q0.08,0.64,0.28,1.04l3.16,0q-0.2-0.8-0.26-1.36t-0.06-1.48l0.04-24.4q0-4.4-4.2-4.4l-0.48,0q-4.2,0-4.2,4.4l0,7l3.32,0l0-6.56q0-0.92,0.32-1.4t0.8-0.48q0.52,0,0.82,0.54t0.3,1.26l0,5.28q0,1.44-0.44,2.34t-1.92,2.5q-2,2.04-2.64,3.64q-0.32,0.8-0.42,1.76t-0.1,2.4l-0.04,4.56q0,2.16,1.08,3.32q0.68,0.68,1.32,0.92t1.52,0.24q0.72,0,1.18-0.36z M102.76,33.56l0,9.88q0,0.92-0.34,1.4t-0.78,0.48q-0.52,0-0.82-0.54t-0.3-1.3l0-5q0-1.52,0.38-2.44t1.78-2.4z M113.44,48.28q4.16,0,4.16-4.4l0-4.8q0-1.48-0.1-2.44t-0.42-1.76t-0.92-1.64t-1.72-2q-1.48-1.56-1.92-2.48t-0.44-2.36l0-5.28q0-0.72,0.3-1.26t0.82-0.54q0.48,0,0.8,0.48t0.32,1.4l0,6.56l3.28,0l0-7q0-4.4-4.16-4.4l-0.48,0q-4.2,0-4.2,4.4l0,5.12q0,2.68,0.68,4.16q0.36,0.8,1,1.62t1.72,1.98q1.4,1.52,1.78,2.44t0.38,2.4l0,5.04q0,0.72-0.3,1.26t-0.82,0.54q-0.48,0-0.8-0.48t-0.32-1.4l0-6.56l-3.32,0l0,7q0,4.4,4.2,4.4l0.48,0z M123.28,48l0.04-31.4l-3.32,0l0,31.4l3.28,0z M123.32,14.4l0-3.76l-3.32,0l0,3.76l3.32,0z M134.56,48l0-27.24q0-2.2-0.72-3.28q-0.76-1.12-2.48-1.12q-0.76,0-1.4,0.32t-0.96,0.8l0-0.88l-3.28,0l0,31.4l3.28,0l0-26.84q0-0.92,0.34-1.4t0.78-0.48q0.56,0,0.84,0.54t0.28,1.3l0,26.88l3.32,0z M142.04,53.24q2.12,0,3.24-0.96q1.24-1,1.24-2.88q0-1.72-1.52-2.8q-1.24-0.88-2.8-0.88q-0.44,0-0.8-0.04t-0.48-0.16q-0.28-0.28,0.08-0.78t1.64-1.82q1.36-1.48,2.22-3.06t0.9-3.58l-0.04-15.16q0.04-0.96,0.2-1.42t0.52-0.46l0.12,0l0-2.88l-0.12,0q-0.56,0-1.02,0.32t-0.7,0.8q-1.08-1.12-3.16-1.12l-0.48,0q-4.2,0-4.2,4.4l0,19.04q0,2.32,1.16,3.4q-0.96,1.44-0.96,2.6q0,0.6,0.24,1.2q0.2,0.4,0.56,0.88q-1.08,0.6-1.08,2.16t1.16,2.4q1.04,0.8,2.6,0.8l1.48,0z M142.36,48.72q0.56,0,0.98,0.28t0.42,0.68t-0.42,0.68t-0.98,0.28l-1.72,0q-0.6,0-1-0.28t-0.4-0.68t0.4-0.68t1-0.28l1.72,0z M142.12,19.8q0.32,0.48,0.32,1.4l0,14.72q0,1.4-0.42,2.36t-1.66,2.28q-0.16-0.36-0.16-1.08l0-18.36q0-0.72,0.3-1.26t0.82-0.54q0.48,0,0.8,0.48z"/></g></svg>